<svg width="184" height="48" viewBox="0 0 184 48" fill="none" xmlns="http://www.w3.org/2000/svg">
<rect y="0.5" width="184" height="47" rx="4" fill="#5468E7" fill-opacity="0.5"/>
<path d="M51.6119 30.68C50.6999 30.68 49.8479 30.518 49.0559 30.194C48.2639 29.858 47.5679 29.396 46.9679 28.808C46.3679 28.22 45.8999 27.536 45.5639 26.756C45.2399 25.964 45.0779 25.112 45.0779 24.2C45.0779 23.3 45.2399 22.46 45.5639 21.68C45.8999 20.9 46.3619 20.222 46.9499 19.646C47.5499 19.058 48.2459 18.602 49.0379 18.278C49.8299 17.954 50.6819 17.792 51.5939 17.792C52.2299 17.792 52.8479 17.882 53.4479 18.062C54.0599 18.242 54.6119 18.494 55.1039 18.818C55.5959 19.142 55.9979 19.514 56.3099 19.934L55.0499 21.248C54.6899 20.9 54.3179 20.612 53.9339 20.384C53.5619 20.156 53.1779 19.982 52.7819 19.862C52.3859 19.742 51.9899 19.682 51.5939 19.682C50.9459 19.682 50.3459 19.796 49.7939 20.024C49.2539 20.252 48.7739 20.57 48.3539 20.978C47.9459 21.386 47.6279 21.866 47.3999 22.418C47.1719 22.958 47.0579 23.552 47.0579 24.2C47.0579 24.824 47.1779 25.418 47.4179 25.982C47.6579 26.534 47.9879 27.02 48.4079 27.44C48.8399 27.86 49.3319 28.19 49.8839 28.43C50.4479 28.67 51.0419 28.79 51.6659 28.79C52.1339 28.79 52.5779 28.724 52.9979 28.592C53.4179 28.448 53.7899 28.25 54.1139 27.998C54.4379 27.746 54.6899 27.458 54.8699 27.134C55.0499 26.798 55.1399 26.444 55.1399 26.072V25.712L55.4099 25.964H51.5579V24.038H57.1379C57.1619 24.17 57.1799 24.302 57.1919 24.434C57.2039 24.554 57.2099 24.674 57.2099 24.794C57.2219 24.902 57.2279 25.01 57.2279 25.118C57.2279 25.946 57.0839 26.702 56.7959 27.386C56.5079 28.058 56.1059 28.64 55.5899 29.132C55.0859 29.624 54.4919 30.008 53.8079 30.284C53.1359 30.548 52.4039 30.68 51.6119 30.68ZM63.7011 30.68C62.7291 30.68 61.8651 30.476 61.1091 30.068C60.3651 29.648 59.7771 29.078 59.3451 28.358C58.9251 27.638 58.7151 26.81 58.7151 25.874C58.7151 25.13 58.8351 24.452 59.0751 23.84C59.3151 23.228 59.6451 22.7 60.0651 22.256C60.4971 21.8 61.0071 21.452 61.5951 21.212C62.1951 20.96 62.8431 20.834 63.5391 20.834C64.1511 20.834 64.7211 20.954 65.2491 21.194C65.7771 21.422 66.2331 21.74 66.6171 22.148C67.0131 22.556 67.3131 23.042 67.5171 23.606C67.7331 24.158 67.8351 24.764 67.8231 25.424L67.8051 26.216H60.0831L59.6691 24.74H66.2031L65.9331 25.046V24.614C65.8971 24.218 65.7651 23.864 65.5371 23.552C65.3091 23.24 65.0211 22.994 64.6731 22.814C64.3251 22.634 63.9471 22.544 63.5391 22.544C62.8911 22.544 62.3451 22.67 61.9011 22.922C61.4571 23.162 61.1211 23.522 60.8931 24.002C60.6651 24.47 60.5511 25.052 60.5511 25.748C60.5511 26.408 60.6891 26.984 60.9651 27.476C61.2411 27.956 61.6311 28.328 62.1351 28.592C62.6391 28.856 63.2211 28.988 63.8811 28.988C64.3491 28.988 64.7811 28.91 65.1771 28.754C65.5851 28.598 66.0231 28.316 66.4911 27.908L67.4271 29.222C67.1391 29.51 66.7851 29.762 66.3651 29.978C65.9571 30.194 65.5191 30.368 65.0511 30.5C64.5951 30.62 64.1451 30.68 63.7011 30.68ZM71.008 30.5V18.638H72.862V30.5H71.008ZM69.046 22.85V21.05H75.058V22.85H69.046ZM80.9451 30.5L85.8231 17.9H87.8031L92.6451 30.5H90.5751L87.6951 22.904C87.6591 22.82 87.5871 22.616 87.4791 22.292C87.3831 21.968 87.2691 21.608 87.1371 21.212C87.0051 20.816 86.8851 20.456 86.7771 20.132C86.6691 19.796 86.5971 19.58 86.5611 19.484L86.9751 19.466C86.9031 19.67 86.8131 19.928 86.7051 20.24C86.6091 20.552 86.5011 20.882 86.3811 21.23C86.2731 21.578 86.1651 21.908 86.0571 22.22C85.9491 22.52 85.8591 22.772 85.7871 22.976L82.9251 30.5H80.9451ZM83.1051 27.368L83.8251 25.496H89.5491L90.3771 27.368H83.1051ZM98.0571 30.68C97.1811 30.68 96.3951 30.464 95.6991 30.032C95.0151 29.6 94.4691 29.012 94.0611 28.268C93.6651 27.524 93.4671 26.69 93.4671 25.766C93.4671 24.842 93.6651 24.008 94.0611 23.264C94.4691 22.52 95.0151 21.932 95.6991 21.5C96.3951 21.068 97.1811 20.852 98.0571 20.852C98.8971 20.852 99.6591 21.026 100.343 21.374C101.039 21.71 101.567 22.172 101.927 22.76L100.901 24.02C100.709 23.744 100.463 23.492 100.163 23.264C99.8631 23.036 99.5451 22.856 99.2091 22.724C98.8731 22.592 98.5491 22.526 98.2371 22.526C97.6611 22.526 97.1451 22.67 96.6891 22.958C96.2451 23.234 95.8911 23.618 95.6271 24.11C95.3631 24.602 95.2311 25.154 95.2311 25.766C95.2311 26.378 95.3691 26.93 95.6451 27.422C95.9211 27.902 96.2871 28.286 96.7431 28.574C97.1991 28.862 97.7031 29.006 98.2551 29.006C98.5791 29.006 98.8911 28.952 99.1911 28.844C99.5031 28.736 99.8031 28.574 100.091 28.358C100.379 28.142 100.649 27.878 100.901 27.566L101.927 28.826C101.543 29.366 100.991 29.81 100.271 30.158C99.5631 30.506 98.8251 30.68 98.0571 30.68ZM107.69 30.68C106.814 30.68 106.028 30.464 105.332 30.032C104.648 29.6 104.102 29.012 103.694 28.268C103.298 27.524 103.1 26.69 103.1 25.766C103.1 24.842 103.298 24.008 103.694 23.264C104.102 22.52 104.648 21.932 105.332 21.5C106.028 21.068 106.814 20.852 107.69 20.852C108.53 20.852 109.292 21.026 109.976 21.374C110.672 21.71 111.2 22.172 111.56 22.76L110.534 24.02C110.342 23.744 110.096 23.492 109.796 23.264C109.496 23.036 109.178 22.856 108.842 22.724C108.506 22.592 108.182 22.526 107.87 22.526C107.294 22.526 106.778 22.67 106.322 22.958C105.878 23.234 105.524 23.618 105.26 24.11C104.996 24.602 104.864 25.154 104.864 25.766C104.864 26.378 105.002 26.93 105.278 27.422C105.554 27.902 105.92 28.286 106.376 28.574C106.832 28.862 107.336 29.006 107.888 29.006C108.212 29.006 108.524 28.952 108.824 28.844C109.136 28.736 109.436 28.574 109.724 28.358C110.012 28.142 110.282 27.878 110.534 27.566L111.56 28.826C111.176 29.366 110.624 29.81 109.904 30.158C109.196 30.506 108.458 30.68 107.69 30.68ZM117.719 30.68C116.747 30.68 115.883 30.476 115.127 30.068C114.383 29.648 113.795 29.078 113.363 28.358C112.943 27.638 112.733 26.81 112.733 25.874C112.733 25.13 112.853 24.452 113.093 23.84C113.333 23.228 113.663 22.7 114.083 22.256C114.515 21.8 115.025 21.452 115.613 21.212C116.213 20.96 116.861 20.834 117.557 20.834C118.169 20.834 118.739 20.954 119.267 21.194C119.795 21.422 120.251 21.74 120.635 22.148C121.031 22.556 121.331 23.042 121.535 23.606C121.751 24.158 121.853 24.764 121.841 25.424L121.823 26.216H114.101L113.687 24.74H120.221L119.951 25.046V24.614C119.915 24.218 119.783 23.864 119.555 23.552C119.327 23.24 119.039 22.994 118.691 22.814C118.343 22.634 117.965 22.544 117.557 22.544C116.909 22.544 116.363 22.67 115.919 22.922C115.475 23.162 115.139 23.522 114.911 24.002C114.683 24.47 114.569 25.052 114.569 25.748C114.569 26.408 114.707 26.984 114.983 27.476C115.259 27.956 115.649 28.328 116.153 28.592C116.657 28.856 117.239 28.988 117.899 28.988C118.367 28.988 118.799 28.91 119.195 28.754C119.603 28.598 120.041 28.316 120.509 27.908L121.445 29.222C121.157 29.51 120.803 29.762 120.383 29.978C119.975 30.194 119.537 30.368 119.069 30.5C118.613 30.62 118.163 30.68 117.719 30.68ZM127.006 30.68C126.214 30.68 125.5 30.542 124.864 30.266C124.228 29.99 123.7 29.582 123.28 29.042L124.54 27.962C124.9 28.382 125.29 28.688 125.71 28.88C126.142 29.06 126.628 29.15 127.168 29.15C127.384 29.15 127.582 29.126 127.762 29.078C127.954 29.018 128.116 28.934 128.248 28.826C128.392 28.718 128.5 28.592 128.572 28.448C128.644 28.292 128.68 28.124 128.68 27.944C128.68 27.632 128.566 27.38 128.338 27.188C128.218 27.104 128.026 27.014 127.762 26.918C127.51 26.81 127.18 26.702 126.772 26.594C126.076 26.414 125.506 26.21 125.062 25.982C124.618 25.754 124.276 25.496 124.036 25.208C123.856 24.98 123.724 24.734 123.64 24.47C123.556 24.194 123.514 23.894 123.514 23.57C123.514 23.174 123.598 22.814 123.766 22.49C123.946 22.154 124.186 21.866 124.486 21.626C124.798 21.374 125.158 21.182 125.566 21.05C125.986 20.918 126.43 20.852 126.898 20.852C127.342 20.852 127.78 20.912 128.212 21.032C128.656 21.152 129.064 21.326 129.436 21.554C129.808 21.782 130.12 22.052 130.372 22.364L129.31 23.534C129.082 23.306 128.83 23.108 128.554 22.94C128.29 22.76 128.02 22.622 127.744 22.526C127.468 22.43 127.216 22.382 126.988 22.382C126.736 22.382 126.508 22.406 126.304 22.454C126.1 22.502 125.926 22.574 125.782 22.67C125.65 22.766 125.548 22.886 125.476 23.03C125.404 23.174 125.368 23.336 125.368 23.516C125.38 23.672 125.416 23.822 125.476 23.966C125.548 24.098 125.644 24.212 125.764 24.308C125.896 24.404 126.094 24.506 126.358 24.614C126.622 24.722 126.958 24.824 127.366 24.92C127.966 25.076 128.458 25.25 128.842 25.442C129.238 25.622 129.55 25.832 129.778 26.072C130.018 26.3 130.186 26.564 130.282 26.864C130.378 27.164 130.426 27.5 130.426 27.872C130.426 28.412 130.27 28.898 129.958 29.33C129.658 29.75 129.25 30.08 128.734 30.32C128.218 30.56 127.642 30.68 127.006 30.68ZM135.619 30.68C134.827 30.68 134.113 30.542 133.477 30.266C132.841 29.99 132.313 29.582 131.893 29.042L133.153 27.962C133.513 28.382 133.903 28.688 134.323 28.88C134.755 29.06 135.241 29.15 135.781 29.15C135.997 29.15 136.195 29.126 136.375 29.078C136.567 29.018 136.729 28.934 136.861 28.826C137.005 28.718 137.113 28.592 137.185 28.448C137.257 28.292 137.293 28.124 137.293 27.944C137.293 27.632 137.179 27.38 136.951 27.188C136.831 27.104 136.639 27.014 136.375 26.918C136.123 26.81 135.793 26.702 135.385 26.594C134.689 26.414 134.119 26.21 133.675 25.982C133.231 25.754 132.889 25.496 132.649 25.208C132.469 24.98 132.337 24.734 132.253 24.47C132.169 24.194 132.127 23.894 132.127 23.57C132.127 23.174 132.211 22.814 132.379 22.49C132.559 22.154 132.799 21.866 133.099 21.626C133.411 21.374 133.771 21.182 134.179 21.05C134.599 20.918 135.043 20.852 135.511 20.852C135.955 20.852 136.393 20.912 136.825 21.032C137.269 21.152 137.677 21.326 138.049 21.554C138.421 21.782 138.733 22.052 138.985 22.364L137.923 23.534C137.695 23.306 137.443 23.108 137.167 22.94C136.903 22.76 136.633 22.622 136.357 22.526C136.081 22.43 135.829 22.382 135.601 22.382C135.349 22.382 135.121 22.406 134.917 22.454C134.713 22.502 134.539 22.574 134.395 22.67C134.263 22.766 134.161 22.886 134.089 23.03C134.017 23.174 133.981 23.336 133.981 23.516C133.993 23.672 134.029 23.822 134.089 23.966C134.161 24.098 134.257 24.212 134.377 24.308C134.509 24.404 134.707 24.506 134.971 24.614C135.235 24.722 135.571 24.824 135.979 24.92C136.579 25.076 137.071 25.25 137.455 25.442C137.851 25.622 138.163 25.832 138.391 26.072C138.631 26.3 138.799 26.564 138.895 26.864C138.991 27.164 139.039 27.5 139.039 27.872C139.039 28.412 138.883 28.898 138.571 29.33C138.271 29.75 137.863 30.08 137.347 30.32C136.831 30.56 136.255 30.68 135.619 30.68Z" fill="#232340"/>
</svg>
